<?xml version="1.0" encoding="UTF-8" standalone="no"?>
<!-- Generator: Adobe Illustrator 21.0.2, SVG Export Plug-In . SVG Version: 6.00 Build 0)  -->

<svg
   xmlns:dc="http://purl.org/dc/elements/1.1/"
   xmlns:cc="http://creativecommons.org/ns#"
   xmlns:rdf="http://www.w3.org/1999/02/22-rdf-syntax-ns#"
   xmlns:svg="http://www.w3.org/2000/svg"
   xmlns="http://www.w3.org/2000/svg"
   xmlns:sodipodi="http://sodipodi.sourceforge.net/DTD/sodipodi-0.dtd"
   xmlns:inkscape="http://www.inkscape.org/namespaces/inkscape"
   version="1.1"
   id="Layer_1"
   x="0px"
   y="0px"
   viewBox="0 0 483.60107 98.244102"
   xml:space="preserve"
   sodipodi:docname="coronavirus.svg"
   width="483.60107"
   height="98.244102"
   inkscape:version="0.92.4 (5da689c313, 2019-01-14)"><metadata
   id="metadata99"><rdf:RDF><cc:Work
       rdf:about=""><dc:format>image/svg+xml</dc:format><dc:type
         rdf:resource="http://purl.org/dc/dcmitype/StillImage" /><dc:title></dc:title></cc:Work></rdf:RDF></metadata><defs
   id="defs97" /><sodipodi:namedview
   pagecolor="#ffffff"
   bordercolor="#666666"
   borderopacity="1"
   objecttolerance="10"
   gridtolerance="10"
   guidetolerance="10"
   inkscape:pageopacity="0"
   inkscape:pageshadow="2"
   inkscape:window-width="2560"
   inkscape:window-height="1377"
   id="namedview95"
   showgrid="false"
   fit-margin-top="0"
   fit-margin-left="0"
   fit-margin-right="0"
   fit-margin-bottom="0"
   inkscape:zoom="0.58361204"
   inkscape:cx="254.5"
   inkscape:cy="49.344101"
   inkscape:window-x="-8"
   inkscape:window-y="-8"
   inkscape:window-maximized="1"
   inkscape:current-layer="Layer_1" />
<style
   type="text/css"
   id="style2">
	.st0{fill:#FFFFFF;}
</style>
<g
   id="g74"
   transform="translate(-44.5,-22.6)">
	<path
   class="st0"
   d="m 68.2,76.5 c 4.9,0 9,1.6 12.5,5.2 l 4.1,-4 c -4,-4.6 -10,-6.9 -16.8,-6.9 -13.5,0 -23.5,9.5 -23.5,22.6 0,13.1 10,22.6 23.4,22.6 6.9,0 12.8,-2.4 16.9,-7 l -4.1,-4 c -3.4,3.6 -7.6,5.3 -12.5,5.3 -10,0 -17.4,-7.2 -17.4,-17 0.1,-9.5 7.5,-16.8 17.4,-16.8 z"
   id="path4"
   inkscape:connector-curvature="0"
   style="fill:#ffffff" />
	<path
   class="st0"
   d="m 181.8,86.9 c 0,-9.6 -7,-15.4 -18.5,-15.4 H 146 v 44.2 h 6.3 v -13.5 h 10.9 c 0.9,0 1.9,-0.1 2.8,-0.1 l 9.6,13.6 h 6.9 L 172,100.8 c 6.2,-2.2 9.8,-7.1 9.8,-13.9 z m -18.7,9.9 H 152.3 V 76.9 h 10.8 c 8.1,0 12.3,3.6 12.3,9.9 0,6.4 -4.2,10 -12.3,10 z"
   id="path6"
   inkscape:connector-curvature="0"
   style="fill:#ffffff" />
	<polygon
   class="st0"
   points="245.1,71.4 245.1,115.7 251.5,115.7 251.5,82.7 278,115.7 283.2,115.7 283.2,71.4 276.9,71.4 276.9,104.4 250.3,71.4 "
   id="polygon8"
   style="fill:#ffffff" />
	<path
   class="st0"
   d="m 309.8,71.4 -20,44.3 h 6.5 l 4.9,-11.1 h 23.5 l 4.9,11.1 h 6.6 L 316.1,71.4 c 0,0 -6.3,0 -6.3,0 z m -6.4,28.2 9.5,-21.7 9.5,21.7 z"
   id="path10"
   inkscape:connector-curvature="0"
   style="fill:#ffffff" />
	<polygon
   class="st0"
   points="336.5,71.4 356.2,115.7 359.5,115.7 379.2,71.4 375.8,71.4 357.9,111.5 340.1,71.4 "
   id="polygon12"
   style="fill:#ffffff" />
	<rect
   x="386.29999"
   y="71.400002"
   class="st0"
   width="3.2"
   height="44.299999"
   id="rect14"
   style="fill:#ffffff" />
	<path
   class="st0"
   d="m 438.7,86.3 c 0,-9.4 -6.7,-14.9 -17.8,-14.9 H 405 v 44.3 h 3.2 v -14.5 h 12.6 c 1.5,0 2.9,-0.1 4.3,-0.3 l 10.6,14.8 h 3.7 l -11.1,-15.5 c 6.6,-2 10.4,-6.8 10.4,-13.9 z m -17.8,12.1 h -12.6 v -24 h 12.6 c 9.5,0 14.5,4.4 14.5,12 0,7.5 -5,12 -14.5,12 z"
   id="path16"
   inkscape:connector-curvature="0"
   style="fill:#ffffff" />
	<path
   class="st0"
   d="m 482.4,96.8 c 0,11.1 -5.2,16.3 -14.5,16.3 -9.2,0 -14.5,-5.2 -14.5,-16.3 V 71.4 h -3.2 v 25.5 c 0,12.6 6.7,19.1 17.7,19.1 11,0 17.8,-6.5 17.8,-19.1 V 71.4 h -3.2 z"
   id="path18"
   inkscape:connector-curvature="0"
   style="fill:#ffffff" />
	<path
   class="st0"
   d="m 500.6,82.8 c 0,-4.9 3.9,-8.9 12.5,-8.9 4,0 8.5,1.2 12.1,3.7 l 1.2,-2.6 c -3.4,-2.5 -8.5,-4 -13.3,-4 -10.9,0 -15.7,5.5 -15.7,11.8 0,16.3 27.6,8.3 27.6,21.6 0,4.8 -3.9,8.7 -12.8,8.7 -5.9,0 -11.6,-2.4 -14.6,-5.6 l -1.5,2.4 c 3.2,3.5 9.5,6 16.1,6 10.9,0 15.9,-5.4 15.9,-11.7 0.2,-16 -27.5,-8.1 -27.5,-21.4 z"
   id="path20"
   inkscape:connector-curvature="0"
   style="fill:#ffffff" />
	<path
   class="st0"
   d="m 137,89.1 c 0.2,0.9 1.1,1.3 1.9,1.1 0.8,-0.2 1.3,-1.1 1.1,-1.9 L 139.1,85 c -0.2,-0.8 -1.1,-1.3 -1.9,-1.1 -0.8,0.2 -1.3,1.1 -1.1,1.9 v 0.1 l -1,0.3 c -1,-2.9 -2.5,-5.6 -4.5,-7.8 l 0.7,-0.7 0.1,0.1 c 0.6,0.6 1.6,0.6 2.2,0 0.6,-0.6 0.6,-1.6 0,-2.2 l -2.4,-2.4 c -0.6,-0.6 -1.6,-0.6 -2.2,0 -0.6,0.6 -0.6,1.6 0,2.2 l 0.1,0.1 -0.8,0.8 c -2.2,-1.8 -4.9,-3.3 -7.8,-4.2 l 0.4,-1.4 h 0.1 c 0.9,0.2 1.7,-0.3 1.9,-1.1 0.2,-0.8 -0.3,-1.7 -1.1,-1.9 l -3.3,-0.9 c -0.8,-0.2 -1.7,0.3 -1.9,1.1 -0.2,0.8 0.3,1.7 1.1,1.9 h 0.1 l -0.4,1.5 c -1.5,-0.3 -3,-0.4 -4.6,-0.4 -1.4,0 -2.8,0.1 -4.2,0.3 l -0.4,-1.4 h 0.1 c 0.8,-0.2 1.3,-1.1 1.1,-1.9 -0.2,-0.8 -1.1,-1.3 -1.9,-1.1 l -3.3,0.9 c -0.8,0.2 -1.3,1.1 -1.1,1.9 0.2,0.8 1.1,1.4 1.9,1.1 h 0.1 l 0.3,1.2 c -3,0.9 -5.7,2.2 -8,4.1 L 96.9,75.5 97,75.4 c 0.6,-0.6 0.6,-1.6 0,-2.2 -0.6,-0.6 -1.6,-0.6 -2.2,0 l -2.4,2.4 c -0.6,0.6 -0.6,1.6 0,2.2 0.6,0.6 1.6,0.6 2.2,0 l 0.1,-0.1 0.4,0.4 C 93,80.3 91.4,83 90.4,86 L 89.9,85.9 V 85.8 C 90.1,85 89.6,84.1 88.8,83.9 88,83.7 87.1,84.2 86.9,85 L 86,88.3 c -0.2,0.8 0.3,1.7 1.1,1.9 0.8,0.2 1.7,-0.2 1.9,-1.1 V 89 l 0.5,0.1 c -0.3,1.4 -0.4,2.9 -0.4,4.5 0,1.6 0.2,3.2 0.5,4.8 l -0.5,0.1 v -0.1 c -0.2,-0.9 -1.1,-1.3 -1.9,-1.1 -0.8,0.2 -1.3,1.1 -1.1,1.9 l 0.9,3.3 c 0.2,0.8 1.1,1.3 1.9,1.1 0.8,-0.2 1.3,-1.1 1.1,-1.9 v -0.1 l 0.5,-0.1 c 1,3 2.7,5.6 4.8,7.8 l -0.6,0.6 -0.1,-0.1 c -0.6,-0.6 -1.6,-0.6 -2.2,0 -0.6,0.6 -0.6,1.6 0,2.2 l 2.4,2.4 c 0.6,0.6 1.6,0.6 2.2,0 0.6,-0.6 0.6,-1.6 0,-2.2 l -0.1,-0.1 0.7,-0.7 c 2.3,1.8 5,3.1 7.9,4 l -0.4,1.5 H 105 c -0.9,-0.2 -1.7,0.3 -1.9,1.1 -0.2,0.8 0.3,1.7 1.1,1.9 l 3.3,0.9 c 0.8,0.2 1.7,-0.3 1.9,-1.1 0.2,-0.8 -0.3,-1.7 -1.1,-1.9 h -0.1 l 0.4,-1.7 c 1.3,0.2 2.7,0.3 4.1,0.3 1.6,0 3.1,-0.1 4.5,-0.4 l 0.5,1.7 h -0.1 c -0.8,0.2 -1.3,1.1 -1.1,1.9 0.2,0.8 1.1,1.3 1.9,1.1 l 3.3,-0.9 c 0.8,-0.2 1.3,-1.1 1.1,-1.9 -0.2,-0.8 -1.1,-1.4 -1.9,-1.1 h -0.1 l -0.4,-1.6 c 2.9,-0.9 5.5,-2.3 7.7,-4 l 0.9,0.9 -0.1,0.1 c -0.6,0.6 -0.6,1.6 0,2.2 0.6,0.6 1.6,0.6 2.2,0 l 2.4,-2.4 c 0.6,-0.6 0.6,-1.6 0,-2.2 -0.6,-0.6 -1.6,-0.6 -2.2,0 l -0.1,0.1 -0.9,-0.9 c 2,-2.2 3.6,-4.8 4.6,-7.7 l 1,0.3 v 0.1 c -0.2,0.8 0.3,1.7 1.1,1.9 0.8,0.2 1.7,-0.3 1.9,-1.1 l 0.9,-3.3 c 0.2,-0.8 -0.3,-1.7 -1.1,-1.9 -0.8,-0.2 -1.7,0.2 -1.9,1.1 v 0.1 l -1,-0.3 c 0.3,-1.5 0.4,-3 0.4,-4.6 0,-1.5 -0.1,-2.9 -0.4,-4.3 l 1,-0.3 z m -41.3,4.6 c 0,-7.2 4.4,-13.4 10.6,-16 2,-0.8 4.2,-1.2 6.6,-1.2 9.8,0 17.1,7.2 17.1,17 0,9.8 -7.3,17 -17.1,17 -4.6,0 -8.6,-1.5 -11.6,-4.1 -3.4,-3.2 -5.6,-7.7 -5.6,-12.7 z"
   id="path22"
   inkscape:connector-curvature="0"
   style="fill:#ffffff" />
	<circle
   class="st0"
   cx="113.1"
   cy="81.800003"
   r="1.6"
   id="circle24"
   style="fill:#ffffff" />
	<circle
   class="st0"
   cx="113.1"
   cy="105.6"
   r="1.6"
   id="circle26"
   style="fill:#ffffff" />
	<circle
   class="st0"
   cx="109.7"
   cy="97.099998"
   r="1.6"
   id="circle28"
   style="fill:#ffffff" />
	<circle
   class="st0"
   cx="116.5"
   cy="97.099998"
   r="1.6"
   id="circle30"
   style="fill:#ffffff" />
	<circle
   class="st0"
   cx="116.5"
   cy="90.300003"
   r="1.6"
   id="circle32"
   style="fill:#ffffff" />
	<circle
   class="st0"
   cx="109.7"
   cy="90.300003"
   r="1.6"
   id="circle34"
   style="fill:#ffffff" />
	<circle
   class="st0"
   cx="125"
   cy="93.699997"
   r="1.6"
   id="circle36"
   style="fill:#ffffff" />
	<circle
   class="st0"
   cx="101.2"
   cy="93.699997"
   r="1.6"
   id="circle38"
   style="fill:#ffffff" />
	<circle
   class="st0"
   cx="121.5"
   cy="85.300003"
   r="1.6"
   id="circle40"
   style="fill:#ffffff" />
	<circle
   class="st0"
   cx="104.7"
   cy="102.1"
   r="1.6"
   id="circle42"
   style="fill:#ffffff" />
	<circle
   class="st0"
   cx="121.5"
   cy="102.1"
   r="1.6"
   id="circle44"
   style="fill:#ffffff" />
	<circle
   class="st0"
   cx="104.7"
   cy="85.300003"
   r="1.6"
   id="circle46"
   style="fill:#ffffff" />
	<path
   class="st0"
   d="m 235.4,89.1 c 0.2,0.9 1.1,1.3 1.9,1.1 0.8,-0.2 1.3,-1.1 1.1,-1.9 L 237.5,85 c -0.2,-0.8 -1.1,-1.3 -1.9,-1.1 -0.8,0.2 -1.3,1.1 -1.1,1.9 v 0.1 l -0.3,0.1 c -1,-3 -2.7,-5.7 -4.8,-8 l 0.3,-0.3 0.1,0.1 c 0.6,0.6 1.6,0.6 2.2,0 0.6,-0.6 0.6,-1.6 0,-2.2 l -2.4,-2.4 c -0.6,-0.6 -1.6,-0.6 -2.2,0 -0.6,0.6 -0.6,1.6 0,2.2 l 0.1,0.1 -0.5,0.5 c -2.3,-1.8 -5.1,-3.2 -8.1,-4 l 0.3,-1.2 h 0.1 c 0.9,0.2 1.7,-0.3 1.9,-1.1 0.2,-0.8 -0.3,-1.7 -1.1,-1.9 l -3.3,-0.9 c -0.8,-0.2 -1.7,0.3 -1.9,1.1 -0.2,0.8 0.3,1.7 1.1,1.9 h 0.1 l -0.4,1.3 c -1.3,-0.2 -2.6,-0.3 -3.9,-0.3 -1.7,0 -3.3,0.1 -4.9,0.4 l -0.4,-1.5 h 0.1 c 0.8,-0.2 1.3,-1.1 1.1,-1.9 -0.2,-0.8 -1.1,-1.3 -1.9,-1.1 l -3.3,0.9 c -0.8,0.2 -1.3,1.1 -1.1,1.9 0.2,0.8 1.1,1.4 1.9,1.1 h 0.1 l 0.4,1.4 c -2.9,0.9 -5.5,2.3 -7.7,4.2 l -0.9,-0.9 0.1,-0.1 c 0.6,-0.6 0.6,-1.6 0,-2.2 -0.6,-0.6 -1.6,-0.6 -2.2,0 l -2.4,2.4 c -0.6,0.6 -0.6,1.6 0,2.2 0.6,0.6 1.6,0.6 2.2,0 l 0.1,-0.1 0.8,0.8 c -2,2.2 -3.5,4.8 -4.5,7.7 l -1.1,-0.3 v -0.1 c 0.2,-0.8 -0.3,-1.7 -1.1,-1.9 -0.8,-0.2 -1.7,0.3 -1.9,1.1 l -0.9,3.3 c -0.2,0.8 0.3,1.7 1.1,1.9 0.8,0.2 1.7,-0.2 1.9,-1.1 v -0.1 l 1.2,0.3 c -0.3,1.4 -0.4,2.8 -0.4,4.3 0,1.6 0.2,3.1 0.4,4.6 l -1.2,0.3 v -0.1 c -0.2,-0.9 -1.1,-1.3 -1.9,-1.1 -0.8,0.2 -1.3,1.1 -1.1,1.9 l 0.9,3.3 c 0.2,0.8 1.1,1.3 1.9,1.1 0.8,-0.2 1.3,-1.1 1.1,-1.9 v -0.1 l 1.2,-0.3 c 1,2.9 2.5,5.4 4.5,7.6 l -1,1 -0.1,-0.1 c -0.6,-0.6 -1.6,-0.6 -2.2,0 -0.6,0.6 -0.6,1.6 0,2.2 l 2.4,2.4 c 0.6,0.6 1.6,0.6 2.2,0 0.6,-0.6 0.6,-1.6 0,-2.2 l -0.1,-0.1 1,-1 c 2.2,1.8 4.8,3.2 7.7,4.1 l -0.5,1.7 h -0.1 c -0.9,-0.2 -1.7,0.3 -1.9,1.1 -0.2,0.8 0.3,1.7 1.1,1.9 l 3.3,0.9 c 0.8,0.2 1.7,-0.3 1.9,-1.1 0.2,-0.8 -0.3,-1.7 -1.1,-1.9 h -0.1 l 0.5,-1.8 c 1.5,0.3 3.1,0.4 4.8,0.4 1.3,0 2.6,-0.1 3.8,-0.3 l 0.4,1.6 h -0.1 c -0.8,0.2 -1.3,1.1 -1.1,1.9 0.2,0.8 1.1,1.3 1.9,1.1 l 3.3,-0.9 c 0.8,-0.2 1.3,-1.1 1.1,-1.9 -0.2,-0.8 -1.1,-1.4 -1.9,-1.1 H 219 l -0.4,-1.4 c 3,-0.8 5.7,-2.2 8,-3.9 l 0.6,0.6 -0.1,0.1 c -0.6,0.6 -0.6,1.6 0,2.2 0.6,0.6 1.6,0.6 2.2,0 l 2.4,-2.4 c 0.6,-0.6 0.6,-1.6 0,-2.2 -0.6,-0.6 -1.6,-0.6 -2.2,0 l -0.1,0.1 -0.5,-0.5 c 2.1,-2.2 3.8,-4.9 4.9,-7.8 l 0.4,0.1 v 0.1 c -0.2,0.8 0.3,1.7 1.1,1.9 0.8,0.2 1.7,-0.3 1.9,-1.1 l 0.9,-3.3 c 0.2,-0.8 -0.3,-1.7 -1.1,-1.9 -0.8,-0.2 -1.7,0.2 -1.9,1.1 v 0.1 l -0.4,-0.1 c 0.3,-1.5 0.5,-3.1 0.5,-4.8 0,-1.6 -0.1,-3.1 -0.4,-4.5 L 235.1,89 Z M 212,110.6 c -9.9,0 -17.3,-7.2 -17.3,-17 0,-9.8 7.3,-17 17.3,-17 1.7,0 3.3,0.2 4.8,0.6 7,2.3 12,8.8 12,16.5 0,5.9 -3,11.2 -7.6,14.3 -2.6,1.7 -5.7,2.6 -9.2,2.6 z"
   id="path48"
   inkscape:connector-curvature="0"
   style="fill:#ffffff" />
	<circle
   class="st0"
   cx="211.5"
   cy="81.800003"
   r="1.6"
   id="circle50"
   style="fill:#ffffff" />
	<circle
   class="st0"
   cx="211.5"
   cy="105.6"
   r="1.6"
   id="circle52"
   style="fill:#ffffff" />
	<circle
   class="st0"
   cx="208.10001"
   cy="97.099998"
   r="1.6"
   id="circle54"
   style="fill:#ffffff" />
	<circle
   class="st0"
   cx="214.89999"
   cy="97.099998"
   r="1.6"
   id="circle56"
   style="fill:#ffffff" />
	<circle
   class="st0"
   cx="214.89999"
   cy="90.300003"
   r="1.6"
   id="circle58"
   style="fill:#ffffff" />
	<circle
   class="st0"
   cx="208.10001"
   cy="90.300003"
   r="1.6"
   id="circle60"
   style="fill:#ffffff" />
	<circle
   class="st0"
   cx="223.3"
   cy="93.699997"
   r="1.6"
   id="circle62"
   style="fill:#ffffff" />
	<circle
   class="st0"
   cx="199.60001"
   cy="93.699997"
   r="1.6"
   id="circle64"
   style="fill:#ffffff" />
	<circle
   class="st0"
   cx="219.89999"
   cy="85.300003"
   r="1.6"
   id="circle66"
   style="fill:#ffffff" />
	<circle
   class="st0"
   cx="203.10001"
   cy="102.1"
   r="1.6"
   id="circle68"
   style="fill:#ffffff" />
	<circle
   class="st0"
   cx="219.89999"
   cy="102.1"
   r="1.6"
   id="circle70"
   style="fill:#ffffff" />
	<circle
   class="st0"
   cx="203.10001"
   cy="85.300003"
   r="1.6"
   id="circle72"
   style="fill:#ffffff" />
</g>
<g
   id="g92"
   transform="translate(-44.5,-22.6)">
	<path
   class="st0"
   d="M 143.4,43.2 H 127 l -3.6,8 h -2.2 l 13,-28.3 h 2.1 l 13,28.3 h -2.2 z m -0.7,-1.8 -7.4,-16.4 -7.4,16.4 z"
   id="path76"
   inkscape:connector-curvature="0"
   style="fill:#ffffff" />
	<path
   class="st0"
   d="M 169.8,39.1 V 22.8 h 2.1 v 16.3 c 0,7.1 3.4,10.3 9.3,10.3 5.9,0 9.3,-3.4 9.3,-10.3 V 22.8 h 2.1 v 16.3 c 0,8.1 -4.3,12.2 -11.4,12.2 -7.1,0 -11.4,-4.1 -11.4,-12.2 z"
   id="path78"
   inkscape:connector-curvature="0"
   style="fill:#ffffff" />
	<path
   class="st0"
   d="m 223.1,24.7 h -10.2 v -1.9 h 22.4 v 1.9 h -10.2 v 26.5 h -2 z"
   id="path80"
   inkscape:connector-curvature="0"
   style="fill:#ffffff" />
	<path
   class="st0"
   d="m 253.4,37 c 0,-8.2 6.3,-14.4 14.7,-14.4 8.4,0 14.7,6.2 14.7,14.4 0,8.2 -6.3,14.4 -14.7,14.4 -8.4,-0.1 -14.7,-6.3 -14.7,-14.4 z m 27.4,0 c 0,-7.2 -5.5,-12.4 -12.7,-12.4 -7.2,0 -12.7,5.3 -12.7,12.4 0,7.2 5.5,12.4 12.7,12.4 7.3,0 12.7,-5.3 12.7,-12.4 z"
   id="path82"
   inkscape:connector-curvature="0"
   style="fill:#ffffff" />
	<path
   class="st0"
   d="M 311.2,24.7 H 301 v -1.9 h 22.4 v 1.9 h -10.2 v 26.5 h -2.1 V 24.7 Z"
   id="path84"
   inkscape:connector-curvature="0"
   style="fill:#ffffff" />
	<path
   class="st0"
   d="m 364.2,49.3 v 1.9 H 344.7 V 22.8 h 18.9 v 1.9 h -16.8 v 11.1 h 15.1 v 1.9 h -15.1 v 11.6 z"
   id="path86"
   inkscape:connector-curvature="0"
   style="fill:#ffffff" />
	<path
   class="st0"
   d="m 385,47.5 0.9,-1.5 c 2,2 5.6,3.6 9.3,3.6 5.7,0 8.1,-2.4 8.1,-5.6 0,-8.5 -17.7,-3.4 -17.7,-13.8 0,-3.9 3,-7.5 10,-7.5 3.1,0 6.4,0.9 8.5,2.6 l -0.8,1.6 c -2.3,-1.6 -5.2,-2.4 -7.8,-2.4 -5.5,0 -8,2.6 -8,5.7 0,8.5 17.7,3.5 17.7,13.7 0,3.9 -3.1,7.4 -10.2,7.4 -3.9,0 -7.9,-1.5 -10,-3.8 z"
   id="path88"
   inkscape:connector-curvature="0"
   style="fill:#ffffff" />
	<path
   class="st0"
   d="m 433.6,24.7 h -10.2 v -1.9 h 22.4 v 1.9 h -10.2 v 26.5 h -2.1 V 24.7 Z"
   id="path90"
   inkscape:connector-curvature="0"
   style="fill:#ffffff" />
</g>
</svg>