<?xml version="1.0" encoding="utf-8"?>
<!-- Generator: Adobe Illustrator 14.0.0, SVG Export Plug-In . SVG Version: 6.00 Build 43363)  -->
<!DOCTYPE svg PUBLIC "-//W3C//DTD SVG 1.1//EN" "http://www.w3.org/Graphics/SVG/1.1/DTD/svg11.dtd">
<svg version="1.1" id="Capa_1" xmlns="http://www.w3.org/2000/svg" xmlns:xlink="http://www.w3.org/1999/xlink" x="0px" y="0px"
	 width="164.957px" height="54px" viewBox="152.093 49.789 164.957 54" enable-background="new 152.093 49.789 164.957 54"
	 xml:space="preserve">
<g>
	<rect x="243.674" y="49.789" fill="#FFFFFF" width="4.064" height="32.973"/>
	<rect x="255.407" y="60.318" fill="#FFFFFF" width="4.059" height="22.444"/>
	<path fill="#FFFFFF" d="M281.179,78.381l0.327,3.526c-1.491,0.592-3.893,1.169-6.513,1.169c-5.372,0-9.838-2.525-9.838-10.788
		c0-7.217,3.699-12.333,11.197-12.333c1.76,0,3.523,0.271,5.111,0.728l-0.46,3.565c-1.403-0.543-3.072-0.951-4.828-0.951
		c-4.521,0-6.732,3.347-6.732,8.448c0,4.382,1.442,7.859,6.413,7.859C277.749,79.604,279.741,79.156,281.179,78.381"/>
	<rect x="286.781" y="60.318" fill="#FFFFFF" width="4.057" height="22.444"/>
	<path fill="#FFFFFF" d="M228.143,60.073h-1.709c-3.157,0-4.697-1.35-4.697-3.521c0-0.087,0-0.16,0.006-0.237
		c0,0-3.553,2.948-3.62,3.196c0.923,2.538,3.4,3.952,7.176,3.952h4.157c2.711,0,3.845,0.496,3.845,1.76
		c0,0.721-0.45,1.444-1.449,1.854c-0.769-0.142-1.899-0.278-2.846-0.278c-6.412,0-9.749,3.525-9.749,8.358
		c0,1.893,0.716,3.477,1.887,4.382h-3.791v3.205h7.631c1.178,0.273,2.217,0.405,3.531,0.405c6.272,0,9.835-3.93,9.835-8.668
		c0-2.845-1.077-5.145-3.298-6.412c1.585-0.722,2.538-2.171,2.538-3.75c0-1.207-1.213-3.063-3.218-3.716
		C232.609,60.03,228.143,60.073,228.143,60.073 M228.83,69.738c3.525,0,5.547,1.81,5.547,5.146c0,3.028-2.116,5.247-5.683,5.247
		c-3.438,0-5.418-1.948-5.418-5.247C223.276,71.595,225.441,69.738,228.83,69.738"/>
	<path fill="#FFFFFF" d="M306.848,60.073h-1.718c-3.169,0-4.708-1.35-4.708-3.521c0-0.087,0-0.16,0.018-0.237
		c0,0-3.558,2.948-3.632,3.196c0.925,2.538,3.409,3.952,7.189,3.952h4.158c2.709,0,3.837,0.496,3.837,1.76
		c0,0.721-0.454,1.444-1.449,1.854c-0.761-0.142-1.887-0.278-2.839-0.278c-6.419,0-9.754,3.525-9.754,8.358
		c0,1.893,0.722,3.477,1.897,4.382h-3.806v3.205h7.64c1.167,0.273,2.213,0.405,3.526,0.405c6.271,0,9.842-3.93,9.842-8.668
		c0-2.845-1.082-5.145-3.293-6.412c1.573-0.722,2.526-2.171,2.526-3.75c0-1.207-1.213-3.063-3.219-3.716
		C311.296,60.03,306.848,60.073,306.848,60.073 M307.521,69.738c3.521,0,5.56,1.81,5.56,5.146c0,3.028-2.129,5.247-5.694,5.247
		c-3.431,0-5.424-1.948-5.424-5.247C301.962,71.595,304.132,69.738,307.521,69.738"/>
	<path fill="#FFFFFF" d="M212.265,60.317h-7.635c-1.178-0.266-2.217-0.402-3.531-0.402c-6.272,0-9.837,3.926-9.837,8.672
		c0,2.844,1.083,5.15,3.292,6.412c-1.578,0.722-2.525,2.169-2.525,3.743c0,1.2,0.552,2.201,1.481,2.875
		c0.39,0.226,0.987,0.552,1.732,0.84c-2.272,3.704-4.583,6.703-6.875,9.111v0.063c-1.234,1.273-2.455,2.374-3.68,3.332
		c-0.289,0.231-0.563,0.44-0.851,0.651c-0.022,0.018-0.052,0.037-0.072,0.06c-1.118,0.813-2.223,1.494-3.306,2.063
		c-0.083,0.053-0.176,0.084-0.265,0.129c-0.16,0.085-0.315,0.161-0.473,0.237c-3.072,1.486-6.011,2.078-8.685,2.002v-0.012
		c-7.97-0.052-14.146-2.138-18.943-5.444v4.796c5,2.663,11.103,4.284,18.593,4.329l-0.006,0.006
		c7.861,0.231,17.67-4.516,27.07-18.732c0.904-1.244,1.762-2.053,3.715-2.053h1.715c3.163,0,4.703,1.339,4.703,3.521
		c0,0.082,0,0.158-0.012,0.237c0,0,3.553-2.961,3.625-3.203c-0.923-2.537-3.407-3.946-7.182-3.946h-4.157
		c-2.71,0-3.845-0.502-3.845-1.76c0-0.722,0.45-1.452,1.443-1.854c0.774,0.137,1.893,0.272,2.846,0.272
		c6.418,0,9.759-3.525,9.759-8.357c0-1.894-0.727-3.473-1.898-4.382h3.801L212.265,60.317L212.265,60.317z M200.785,73.324
		c-3.525,0-5.548-1.799-5.548-5.153c0-3.022,2.118-5.228,5.688-5.228c3.433,0,5.418,1.928,5.418,5.228
		C206.344,71.473,204.173,73.324,200.785,73.324"/>
</g>
</svg>
