<?xml version="1.0" encoding="utf-8"?>
<!-- Generator: Adobe Illustrator 14.0.0, SVG Export Plug-In . SVG Version: 6.00 Build 43363)  -->
<!DOCTYPE svg PUBLIC "-//W3C//DTD SVG 1.1//EN" "http://www.w3.org/Graphics/SVG/1.1/DTD/svg11.dtd">
<svg version="1.1" id="Capa_1" xmlns="http://www.w3.org/2000/svg" xmlns:xlink="http://www.w3.org/1999/xlink" x="0px" y="0px"
	 width="202px" height="65px" viewBox="0 0 202 65" enable-background="new 0 0 202 65" xml:space="preserve">
<g>
	<g>
		<path fill="#FFFFFF" d="M128.848,9.432c-0.576-0.058-1.24-0.087-1.988-0.087h-2.035v10.897c0,0.981,0.056,1.959,0.172,2.94
			c0.195,1.042,0.434,1.869,0.792,2.868h-4.668c0.358-1.001,0.601-1.831,0.797-2.877c0.115-0.977,0.171-1.953,0.171-2.931V9.345
			h-2.035c-0.748,0-1.412,0.029-1.988,0.087c-0.856,0.076-1.646,0.391-2.428,0.727V6.748h15.639v3.411
			C130.494,9.823,129.705,9.508,128.848,9.432L128.848,9.432z"/>
		<path fill="#FFFFFF" d="M112.848,12.556V22.69c0,0.404,0.027,0.919,0.084,1.553c0.07,0.702,0.201,1.152,0.447,1.807h-3.158
			c-0.396-0.815-0.973-1.658-1.498-2.394l-8.744-12.009v8.597c0,0.981,0.057,1.961,0.172,2.94c0.196,1.04,0.437,1.873,0.794,2.869
			h-4.668c0.358-1.001,0.599-1.833,0.795-2.877c0.116-0.978,0.171-1.953,0.171-2.933V10.106c0-0.402-0.028-0.917-0.085-1.551
			c-0.071-0.702-0.202-1.154-0.449-1.811h3.336c0.397,0.823,0.969,1.657,1.5,2.399l8.566,11.802v-8.391
			c0-0.981-0.057-1.959-0.174-2.942c-0.194-1.039-0.436-1.869-0.791-2.868h4.666c-0.357,1.001-0.599,1.833-0.793,2.878
			C112.902,10.601,112.848,11.577,112.848,12.556L112.848,12.556z"/>
		<path fill="#FFFFFF" d="M79,12.552c0-0.979-0.056-1.958-0.172-2.939c-0.195-1.04-0.435-1.871-0.793-2.868h4.668
			c-0.359,1.001-0.599,1.833-0.793,2.878c-0.117,0.977-0.171,1.952-0.171,2.928v1.786v4.849c0,2.445,1.982,4.428,4.428,4.428
			c2.445,0,4.428-1.983,4.428-4.428v-4.849l-0.001-1.786c0-0.979-0.057-1.958-0.173-2.939c-0.195-1.04-0.435-1.871-0.792-2.868
			h4.668c-0.358,1.001-0.598,1.833-0.794,2.878c-0.116,0.977-0.171,1.952-0.171,2.928v1.786v4.849c0,3.956-3.208,7.163-7.165,7.163
			s-7.165-3.208-7.165-7.163v-4.849L79,12.552L79,12.552z"/>
		<path fill="#FFFFFF" d="M59.627,6.746h4.602c0.086,0.363,0.169,0.73,0.267,1.09c0.141,0.427,0.311,0.815,0.949,1.827
			c0.58,0.882,2.21,3.19,2.768,3.978l2.547-3.979c0.38-0.573,0.626-1.017,0.75-1.334c0.197-0.501,0.28-1.052,0.361-1.582h4.246
			C75.46,7.53,74.85,8.328,74.303,9.193c0,0-3.492,5.381-4.423,6.814l5.164,7.617c0.947,1.278,2.081,2.427,2.081,2.427h-5.22
			c0.112-0.925,0.135-1.454-0.415-2.323c-0.043-0.088-3.28-5.288-3.28-5.288l-2.452,3.476c-0.92,1.458-1.482,2.441-1.896,4.135
			l-4.45,0.001c1.531-1.608,2.84-3.435,4.044-5.297l3.124-4.651l-3.822-5.425C61.265,8.494,59.627,6.746,59.627,6.746L59.627,6.746z
			"/>
		<path fill="#FFFFFF" d="M143.247,9.362c-0.465-0.145-1.252-0.27-2.034-0.273c-2.004-0.007-3.531,0.553-4.822,1.675
			c-1.166,1.014-1.877,2.435-1.924,4.448h8.78V9.362L143.247,9.362z M146.445,25.869l0.068,0.185h-3.801
			c0.246-0.658,0.377-1.112,0.447-1.813c0.059-0.633,0.084-1.149,0.084-1.552l0.002-4.881h-8.783v3.203v1.717
			c0.031,1.121,0.123,2.214,0.27,3.327h-3.969c0.358-1.003,0.6-1.835,0.795-2.881c0.115-0.979,0.172-1.953,0.172-2.933v-1.923v-0.65
			v-2.194c0-2.613,0.804-4.77,2.422-6.448c1.68-1.678,3.929-2.577,6.834-2.577c0.713,0,1.275,0.021,2.01,0.099
			c0.998,0.088,1.992,0.222,2.984,0.367l-0.002,15.775c0,0.403,0.028,0.919,0.088,1.552
			C146.128,24.836,146.234,25.311,146.445,25.869L146.445,25.869z"/>
		<path fill="#FFFFFF" d="M198.73,35.641c-0.465-0.146-1.252-0.271-2.032-0.273c-2.005-0.006-3.531,0.553-4.822,1.675
			c-1.168,1.015-1.875,2.435-1.926,4.448h8.78V35.641L198.73,35.641z M201.932,52.148l0.069,0.183h-3.806
			c0.246-0.658,0.38-1.11,0.449-1.813c0.06-0.631,0.084-1.148,0.084-1.551l0.002-4.883h-8.782v3.203v1.717
			c0.03,1.123,0.125,2.212,0.271,3.326l-3.973,0.001c0.361-1.001,0.6-1.835,0.795-2.882c0.117-0.979,0.174-1.953,0.174-2.934v-1.922
			v-0.652V41.75c0-2.613,0.803-4.77,2.422-6.447c1.678-1.679,3.93-2.578,6.834-2.578c0.715,0,1.275,0.023,2.01,0.099
			c0.998,0.09,1.992,0.224,2.984,0.367v15.777c0,0.401,0.027,0.918,0.086,1.551C201.609,51.113,201.721,51.589,201.932,52.148
			L201.932,52.148z"/>
		<path fill="#FFFFFF" d="M182.775,38.837v7.685c0,0.981,0.058,1.959,0.173,2.939c0.194,1.042,0.436,1.874,0.793,2.871h-4.666
			c0.358-1.001,0.598-1.832,0.795-2.878c0.114-0.978,0.17-1.953,0.17-2.931v-7.686c0-0.982-0.058-1.961-0.174-2.939
			c-0.193-1.043-0.435-1.873-0.791-2.871h4.666c-0.359,1-0.599,1.834-0.796,2.88C182.831,36.884,182.775,37.857,182.775,38.837
			L182.775,38.837z"/>
		<path fill="#FFFFFF" d="M155.329,38.835v7.685c0,0.981,0.058,1.961,0.172,2.94c0.194,1.042,0.438,1.872,0.795,2.871h-4.668
			c0.358-1.003,0.601-1.835,0.795-2.88c0.117-0.979,0.173-1.952,0.173-2.932v-7.685c0-0.981-0.056-1.959-0.175-2.94
			c-0.192-1.043-0.435-1.873-0.793-2.871h4.668c-0.358,1.002-0.601,1.834-0.795,2.879C155.387,36.88,155.329,37.857,155.329,38.835
			L155.329,38.835z"/>
		<path fill="#FFFFFF" d="M141.641,38.833l-0.002,10.783h2.028c0.981,0,1.961-0.056,2.94-0.173c1.041-0.195,1.873-0.437,2.871-0.793
			l-0.004,3.681h-11.539c0.359-1.003,0.6-1.832,0.795-2.878c0.115-0.979,0.17-1.953,0.17-2.932v-7.687
			c0-0.981-0.055-1.96-0.172-2.94c-0.195-1.043-0.437-1.871-0.793-2.871h4.668c-0.359,1.002-0.601,1.834-0.795,2.879
			C141.693,36.879,141.641,37.854,141.641,38.833L141.641,38.833z"/>
		<path fill="#FFFFFF" d="M131.375,35.643c-0.466-0.146-1.252-0.271-2.034-0.273c-2.005-0.008-3.53,0.553-4.821,1.675
			c-1.168,1.015-1.877,2.435-1.926,4.448h8.781V35.643L131.375,35.643z M134.574,52.148l0.07,0.182h-3.804
			c0.246-0.659,0.377-1.107,0.447-1.811c0.06-0.633,0.087-1.149,0.087-1.553v-4.881h-8.783v3.203v1.717
			c0.031,1.121,0.126,2.211,0.271,3.324h-3.971c0.358-1.003,0.599-1.834,0.795-2.878c0.115-0.978,0.17-1.955,0.17-2.933v-1.924
			v-0.65v-2.193c0-2.613,0.805-4.77,2.424-6.447c1.679-1.679,3.928-2.58,6.833-2.58c0.714,0,1.276,0.023,2.011,0.101
			c0.998,0.089,1.991,0.224,2.982,0.367v15.777c0,0.401,0.029,0.916,0.086,1.551C134.255,51.116,134.365,51.591,134.574,52.148
			L134.574,52.148z"/>
		<path fill="#FFFFFF" d="M108.838,41.223c1.112,0.146,2.204,0.237,3.326,0.27h1.718h3.101v1.559c0,6.274-4.44,9.583-9.07,9.583
			c-5.359-0.106-9.713-4.506-9.779-9.942c0.073-5.998,5.325-10.716,11.4-9.866c2.445,0.343,4.486,1.495,6.136,3.315l-1.534,3.189
			c-1.417-2.29-3.424-3.779-6.221-3.779c-3.855,0-7,3.17-7.061,7.12c0.061,3.972,3.206,7.142,7.06,7.142
			c3.397,0,5.969-2.149,6.274-5.726l-0.408,0.001h-0.525c-0.749,0-1.413,0.028-1.988,0.087c-0.857,0.076-1.646,0.392-2.426,0.726
			L108.838,41.223L108.838,41.223z"/>
		<path fill="#FFFFFF" d="M87.601,40.953v3.671c-0.658-0.247-1.11-0.377-1.813-0.449c-0.552-0.049-1.014-0.077-1.392-0.083h-3.585
			v5.512h4.821c0.679-0.004,1.285-0.035,1.816-0.088c0.856-0.078,1.644-0.391,2.425-0.725v3.539H77.115
			c0.359-1.001,0.599-1.832,0.794-2.875c0.116-0.979,0.171-1.955,0.171-2.934v-7.687c0-0.983-0.056-1.962-0.172-2.942
			c-0.196-1.039-0.436-1.871-0.793-2.869l12.757,0.002v3.545c-0.781-0.334-1.569-0.647-2.425-0.725
			c-0.576-0.059-1.241-0.088-1.99-0.088H80.81v5.727h3.426c0.402,0,0.918-0.027,1.551-0.084
			C86.767,41.316,87.601,40.953,87.601,40.953L87.601,40.953z"/>
		<path fill="#FFFFFF" d="M63.322,49.6h2.268c3.618,0.01,6.54-3.08,6.54-6.92c0-3.842-2.924-6.931-6.502-6.931l-2.306-0.002V49.6
			L63.322,49.6z M60.422,49.45c0.116-0.978,0.17-1.953,0.17-2.931v-7.686c0-0.98-0.056-1.959-0.172-2.939
			c-0.196-1.041-0.436-1.871-0.793-2.869h5.965c5.139,0.006,9.258,4.334,9.258,9.654c0,5.321-4.12,9.651-9.221,9.651l-0.195-0.003
			h-5.807C59.987,51.325,60.226,50.495,60.422,49.45L60.422,49.45z"/>
		<path fill="#FFFFFF" d="M168.43,49.809c2.797,0,4.807-1.488,6.223-3.779l1.531,3.191c-1.65,1.818-3.689,2.971-6.136,3.313
			c-6.073,0.853-11.325-3.869-11.399-9.847c0.072-5.996,5.324-10.718,11.399-9.865c2.445,0.343,4.486,1.494,6.136,3.314
			l-1.531,3.191c-1.416-2.29-3.426-3.781-6.223-3.781c-3.855,0-7,3.17-7.06,7.12C161.43,46.641,164.573,49.809,168.43,49.809
			L168.43,49.809z"/>
	</g>
	<g>
		<polygon fill="#FFFFFF" points="0,0 49.021,0 49.021,64.452 0,64.452 		"/>
		<polygon fill="#229AD2" points="1.366,1.366 47.655,1.366 47.655,63.086 1.366,63.086 		"/>
		<g>
			<polygon fill="#FFFFFF" points="18.382,14.77 18.559,15.74 30.461,15.74 30.638,14.77 			"/>
			<path fill="#FFFFFF" d="M18.03,13.799h1.233L17.5,11.331c-0.234-0.471-0.353-0.853-0.353-1.146c0-0.529,0.178-0.97,0.53-1.323
				c0.41-0.411,0.911-0.618,1.498-0.618c0.354,0,0.588,0.029,0.706,0.088c-0.176,0.47-0.265,0.911-0.265,1.323
				c0,0.588,0.119,1.087,0.354,1.498l1.499,2.646h1.146l-1.764-3.085c-0.176-0.354-0.265-0.706-0.265-1.059
				c0-0.529,0.176-0.97,0.53-1.323c0.41-0.412,0.881-0.616,1.41-0.616c0.646,0,1.146,0.234,1.498,0.705v5.378h0.97V8.421
				c0.353-0.47,0.854-0.705,1.499-0.705c0.529,0,0.971,0.205,1.323,0.616c0.412,0.353,0.617,0.793,0.617,1.323
				c0,0.353-0.087,0.705-0.265,1.059l-1.763,3.085h1.147l1.499-2.646c0.235-0.411,0.352-0.91,0.352-1.498
				c0-0.412-0.089-0.853-0.265-1.323c0.176-0.059,0.411-0.088,0.706-0.088c0.589,0,1.058,0.207,1.41,0.618
				c0.412,0.353,0.618,0.793,0.618,1.323c0,0.293-0.117,0.675-0.353,1.146l-1.764,2.468h1.235l1.322-1.939
				c0.353-0.412,0.529-0.97,0.529-1.675c0-0.824-0.294-1.5-0.883-2.027c-0.586-0.588-1.292-0.884-2.115-0.884
				c-0.47,0-0.912,0.089-1.323,0.266c-0.529-0.528-1.205-0.793-2.028-0.793c-0.822,0-1.469,0.236-1.94,0.705
				c-0.587-0.469-1.264-0.705-2.027-0.705c-0.823,0-1.499,0.266-2.028,0.793c-0.471-0.177-0.911-0.266-1.323-0.266
				c-0.823,0-1.527,0.295-2.116,0.884c-0.587,0.528-0.881,1.203-0.881,2.027c0,0.705,0.176,1.264,0.529,1.675L18.03,13.799
				L18.03,13.799z"/>
			<polygon fill="#FFFFFF" points="25.671,22.936 25.671,25.257 23.35,25.257 23.35,22.936 21.028,22.936 21.028,20.615 
				23.35,20.615 23.35,18.293 25.671,18.293 25.671,20.615 27.992,20.615 27.992,22.936 			"/>
			<path fill="#FFFFFF" d="M20.674,31.085c0-2.119,1.717-3.836,3.835-3.836c2.119,0,3.836,1.717,3.836,3.836
				c0,2.118-1.718,3.835-3.836,3.835C22.392,34.92,20.674,33.203,20.674,31.085L20.674,31.085z"/>
			<path fill="#FFFFFF" d="M16.795,36.46c0,1.88,0.587,3.526,1.764,4.937c1.175,1.41,2.645,2.293,4.409,2.646
				c0.116,0.587,0.175,1.027,0.175,1.323c0.236,2.173-0.059,4.229-0.88,6.17c-0.765,1.94-1.91,3.586-3.438,4.938
				c-0.06,0-0.089,0.059-0.089,0.174c0,0.178,0.089,0.267,0.265,0.267h11.021c0.176,0,0.264-0.088,0.264-0.267
				c0-0.115-0.029-0.174-0.087-0.174c-1.528-1.353-2.704-2.998-3.528-4.938c-0.764-1.938-1.028-3.997-0.792-6.17
				c0-0.296,0.057-0.736,0.175-1.323c1.764-0.354,3.234-1.236,4.408-2.646c1.176-1.41,1.763-3.057,1.763-4.937v-0.267
				c0-0.115-0.087-0.176-0.264-0.176h-14.9c-0.177,0-0.266,0.061-0.266,0.176V36.46L16.795,36.46z"/>
			<polygon fill="#FFFFFF" points="39.148,50.01 39.148,52.332 36.826,52.332 36.826,50.01 34.505,50.01 34.505,47.689 
				36.826,47.689 36.826,45.368 39.148,45.368 39.148,47.689 41.469,47.689 41.469,50.01 			"/>
			<polygon fill="#FFFFFF" points="39.148,36.521 39.148,38.841 36.826,38.841 36.826,36.521 34.505,36.521 34.505,34.199 
				36.826,34.199 36.826,31.877 39.148,31.877 39.148,34.199 41.469,34.199 41.469,36.521 			"/>
			<polygon fill="#FFFFFF" points="39.148,22.942 39.148,25.265 36.826,25.265 36.826,22.942 34.505,22.942 34.505,20.621 
				36.826,20.621 36.826,18.3 39.148,18.3 39.148,20.621 41.469,20.621 41.469,22.942 			"/>
			<polygon fill="#FFFFFF" points="12.172,50.01 12.172,52.332 9.85,52.332 9.85,50.01 7.529,50.01 7.529,47.689 9.85,47.689 
				9.85,45.368 12.172,45.368 12.172,47.689 14.493,47.689 14.493,50.01 			"/>
			<polygon fill="#FFFFFF" points="12.172,36.521 12.172,38.841 9.85,38.841 9.85,36.521 7.529,36.521 7.529,34.199 9.85,34.199 
				9.85,31.877 12.172,31.877 12.172,34.199 14.493,34.199 14.493,36.521 			"/>
			<polygon fill="#FFFFFF" points="12.172,22.942 12.172,25.265 9.85,25.265 9.85,22.942 7.529,22.942 7.529,20.621 9.85,20.621 
				9.85,18.3 12.172,18.3 12.172,20.621 14.493,20.621 14.493,22.942 			"/>
		</g>
		<polygon fill="#FFFFFF" points="24.114,4.453 24.114,5.071 23.496,5.071 23.496,5.775 24.114,5.775 24.114,6.394 24.908,6.394 
			24.908,5.775 25.524,5.775 25.524,5.071 24.908,5.071 24.908,4.453 		"/>
	</g>
</g>
</svg>
